<?xml version="1.0" encoding="UTF-8" standalone="no"?>
<!-- Created with Inkscape (http://www.inkscape.org/) -->

<svg
   width="210mm"
   height="297mm"
   viewBox="0 0 210 297"
   version="1.1"
   id="svg1"
   inkscape:version="1.4 (86a8ad7, 2024-10-11)"
   sodipodi:docname="owl logo.svg"
   xmlns:inkscape="http://www.inkscape.org/namespaces/inkscape"
   xmlns:sodipodi="http://sodipodi.sourceforge.net/DTD/sodipodi-0.dtd"
   xmlns="http://www.w3.org/2000/svg"
   xmlns:svg="http://www.w3.org/2000/svg">
  <sodipodi:namedview
     id="namedview1"
     pagecolor="#ffffff"
     bordercolor="#000000"
     borderopacity="0.25"
     inkscape:showpageshadow="2"
     inkscape:pageopacity="0.0"
     inkscape:pagecheckerboard="0"
     inkscape:deskcolor="#d1d1d1"
     inkscape:document-units="mm"
     inkscape:zoom="0.97386896"
     inkscape:cx="404.05847"
     inkscape:cy="483.12455"
     inkscape:window-width="1920"
     inkscape:window-height="991"
     inkscape:window-x="-9"
     inkscape:window-y="-9"
     inkscape:window-maximized="1"
     inkscape:current-layer="layer1" />
  <defs
     id="defs1" />
  <g
     inkscape:label="Layer 1"
     inkscape:groupmode="layer"
     id="layer1">
    <style
       id="style1">
.MsftOfcThm_Text1_Fill_v2 {
 fill:#FFFFFF; 
}
</style>
    <path
       d="m 109.16289,142.19211 c -0.49969,2.83066 -0.8326,5.66133 -0.8326,8.49206 0,17.6501 10.82324,32.80257 26.14217,39.46298 7.49301,-10.49014 12.15528,-24.97659 12.15528,-41.12812 0,-10.82318 -2.16465,-18.98221 -5.82786,-25.14311 -6.49394,9.99064 -18.14966,16.98408 -31.63699,18.31619 z"
       class="MsftOfcThm_Text1_Fill_v2"
       fill="#FFFFFF"
       id="path1"
       style="fill:#e43030;stroke-width:1.6651;fill-opacity:1" />
    <path
       d="m 101.50337,150.68417 c 0,-2.99718 -0.33292,-5.82792 -0.83255,-8.49206 -13.48732,-1.16559 -24.97658,-8.15903 -31.637,-18.14967 -3.66323,6.1609 -5.827863,14.31993 -5.827863,25.14311 0,15.98501 4.662293,30.47146 12.155243,41.12812 15.48551,-6.82693 26.14217,-21.9794 26.14217,-39.6295 z"
       class="MsftOfcThm_Text1_Fill_v2"
       fill="#FFFFFF"
       id="path2"
       style="fill:#e43030;stroke-width:1.6651;fill-opacity:1" />
    <path
       d="m 94.01042,86.078033 c 4.32923,0 8.15903,1.665148 10.9897,4.495817 2.83067,-2.830669 6.6604,-4.495817 10.9897,-4.495817 8.492,0 15.31893,6.826923 15.31893,15.152477 0,8.32554 -6.82693,15.15247 -15.31893,15.15247 -1.83161,0 -3.49676,-0.33292 -5.16184,-0.83254 l -5.99438,8.492 -5.82786,-8.65853 c -1.66515,0.49969 -3.33023,0.83255 -5.16184,0.83255 -8.49207,0 -15.31899,-6.82693 -15.31899,-15.15248 0,-8.159024 6.99344,-14.985947 15.48551,-14.985947 z m 10.9897,49.620187 c 19.4817,0 35.13374,-13.82043 35.13374,-30.97096 0,-3.49675 -0.66608,-6.993445 -1.99813,-9.990635 0.16615,-0.332916 0.16615,-0.832605 0.16615,-1.332106 l 0.66608,-13.154345 c -0.16677,-1.665085 -1.83161,-2.830669 -3.49675,-2.664148 l -12.98783,3.829732 c 0,0 0,0 -0.16677,0 -4.16271,-0.999063 -9.82411,-1.665084 -17.48358,-1.665084 -7.49301,0 -13.15434,0.666021 -17.48364,1.665084 H 87.18325 L 74.52842,77.419505 c -1.6651,-0.166773 -3.33021,0.999063 -3.49672,2.664148 l 0.66604,13.154345 c 0,0.499689 0,0.832543 0.16653,1.332106 -1.16558,3.163711 -1.99813,6.493876 -1.99813,9.990636 0,17.31705 15.65197,31.13748 35.13374,31.13748 z"
       class="MsftOfcThm_Text1_Fill_v2"
       fill="#FFFFFF"
       id="path3"
       style="fill:#e43030;stroke-width:1.6651;fill-opacity:1" />
    <ellipse
       cx="115.9898"
       cy="101.23051"
       rx="6.6604223"
       ry="6.4939122"
       class="MsftOfcThm_Text1_Fill_v2"
       fill="#FFFFFF"
       id="ellipse3"
       style="fill:#e43030;stroke-width:1.6651;fill-opacity:1" />
    <ellipse
       cx="94.010399"
       cy="101.23051"
       rx="6.6604223"
       ry="6.4939122"
       class="MsftOfcThm_Text1_Fill_v2"
       fill="#FFFFFF"
       id="ellipse4"
       style="fill:#e43030;stroke-width:1.6651;fill-opacity:1" />
    <path
       d="m 88.18256,208.96283 c 1.83161,0 3.33017,-4.8288 3.33017,-6.6604 0,-1.83161 -1.49856,-3.33023 -3.33017,-3.33023 -0.99906,0 -1.83167,0.49968 -2.49769,1.16558 -0.66602,-0.66602 -1.49856,-1.16558 -2.49763,-1.16558 -0.99906,0 -1.83166,0.49968 -2.49769,1.16558 -0.66602,-0.66602 -1.49856,-1.16558 -2.49762,-1.16558 -1.83167,0 -3.33024,1.49862 -3.33024,3.33023 0,1.8316 1.49857,6.6604 3.33024,6.6604 0.99906,0 1.8316,-1.49856 2.49762,-2.99719 0.66603,1.66515 1.49863,2.99719 2.49769,2.99719 0.99907,0 1.83161,-1.49856 2.49763,-2.99719 0.66602,1.49863 1.49863,2.99719 2.49769,2.99719 z"
       class="MsftOfcThm_Text1_Fill_v2"
       fill="#FFFFFF"
       id="path4"
       style="fill:#e43030;stroke-width:1.6651;fill-opacity:1" />
    <path
       id="path5"
       style="fill:#e43030;stroke-width:1.6651;fill-opacity:1"
       class="MsftOfcThm_Text1_Fill_v2"
       d="m 104.8336,168.49947 c -3.82974,9.82411 -10.82387,18.31681 -19.81544,23.97815 0.16677,0 0.33411,-8.8e-4 0.50088,0.16589 0.83254,-0.16677 1.66509,-0.33172 2.49763,-0.33172 5.49482,0 9.99063,4.49576 9.99063,9.99064 0,0.99906 -0.1674,2.49825 -0.66671,3.99688 2.33117,0.66602 4.82955,0.99844 7.32718,0.99844 2.49769,0 4.82678,-0.33292 7.15795,-0.83255 -0.49969,-1.66514 -0.66344,-3.16371 -0.66344,-4.16277 0.33291,-5.49488 4.82754,-9.99064 10.32235,-9.99064 0.83255,0 1.66515,0.16558 2.49769,0.33172 0.16678,0 0.50038,-0.16589 0.66672,-0.16589 -8.82505,-5.66134 -15.81919,-13.98751 -19.81544,-23.97815 z" />
    <path
       d="m 131.47527,198.9722 c -0.99907,0 -1.83161,0.49968 -2.49763,1.16558 -0.66608,-0.66602 -1.49863,-1.16558 -2.49769,-1.16558 -0.99906,0 -1.83161,0.49968 -2.49763,1.16558 -0.66608,-0.66602 -1.49862,-1.16558 -2.49769,-1.16558 -1.8316,0 -3.33017,1.49862 -3.33017,3.33023 0,1.8316 1.49857,6.6604 3.33017,6.6604 0.99907,0 1.83161,-1.49856 2.49769,-2.99719 0.66602,1.66515 1.49857,2.99719 2.49763,2.99719 0.99906,0 1.83161,-1.49856 2.49769,-2.99719 0.66602,1.66515 1.49856,2.99719 2.49763,2.99719 1.8316,0 3.33023,-4.8288 3.33023,-6.6604 0,-1.83161 -1.49863,-3.33023 -3.33023,-3.33023 z"
       class="MsftOfcThm_Text1_Fill_v2"
       fill="#FFFFFF"
       id="path6"
       style="fill:#e43030;stroke-width:1.6651;fill-opacity:1" />
  </g>
</svg>
